<mxfile host="app.diagrams.net" modified="2022-05-26T12:37:24.719Z" agent="5.0 (X11; Linux x86_64) AppleWebKit/537.36 (KHTML, like Gecko) Chrome/101.0.4951.64 Safari/537.36" etag="UdBpL7cV6pGiw3nm31Wo" version="18.0.3" type="github">
  <diagram id="HBX_xjjCjJP_ABUMIchj" name="Page-1">
    <mxGraphModel dx="1360" dy="773" grid="0" gridSize="10" guides="1" tooltips="1" connect="1" arrows="1" fold="1" page="1" pageScale="1" pageWidth="1169" pageHeight="827" math="0" shadow="0">
      <root>
        <mxCell id="0" />
        <mxCell id="1" parent="0" />
        <mxCell id="p3IHekGSYv0jLlhR8bM8-1" value="user" style="swimlane;startSize=30;html=1;whiteSpace=wrap;container=1;collapsible=0;childLayout=tableLayout;" vertex="1" parent="1">
          <mxGeometry x="475" y="160" width="220" height="275.5" as="geometry" />
        </mxCell>
        <mxCell id="p3IHekGSYv0jLlhR8bM8-2" value="" style="html=1;whiteSpace=wrap;collapsible=0;dropTarget=0;pointerEvents=0;fillColor=none;strokeColor=none;points=[[0,0.5],[1,0.5]];portConstraint=eastwest;" vertex="1" parent="p3IHekGSYv0jLlhR8bM8-1">
          <mxGeometry y="30" width="220" height="30" as="geometry" />
        </mxCell>
        <mxCell id="p3IHekGSYv0jLlhR8bM8-3" value="Field" style="shape=partialRectangle;html=1;whiteSpace=wrap;connectable=0;fillColor=none;fontStyle=1" vertex="1" parent="p3IHekGSYv0jLlhR8bM8-2">
          <mxGeometry width="138" height="30" as="geometry">
            <mxRectangle width="138" height="30" as="alternateBounds" />
          </mxGeometry>
        </mxCell>
        <mxCell id="p3IHekGSYv0jLlhR8bM8-4" value="Type" style="shape=partialRectangle;html=1;whiteSpace=wrap;connectable=0;fillColor=none;fontStyle=1" vertex="1" parent="p3IHekGSYv0jLlhR8bM8-2">
          <mxGeometry x="138" width="82" height="30" as="geometry">
            <mxRectangle width="82" height="30" as="alternateBounds" />
          </mxGeometry>
        </mxCell>
        <mxCell id="p3IHekGSYv0jLlhR8bM8-5" value="" style="html=1;whiteSpace=wrap;collapsible=0;dropTarget=0;pointerEvents=0;fillColor=none;strokeColor=none;points=[[0,0.5],[1,0.5]];portConstraint=eastwest;" vertex="1" parent="p3IHekGSYv0jLlhR8bM8-1">
          <mxGeometry y="60" width="220" height="31" as="geometry" />
        </mxCell>
        <mxCell id="p3IHekGSYv0jLlhR8bM8-6" value="id (PK)" style="shape=partialRectangle;html=1;whiteSpace=wrap;connectable=0;fillColor=none;" vertex="1" parent="p3IHekGSYv0jLlhR8bM8-5">
          <mxGeometry width="138" height="31" as="geometry">
            <mxRectangle width="138" height="31" as="alternateBounds" />
          </mxGeometry>
        </mxCell>
        <mxCell id="p3IHekGSYv0jLlhR8bM8-7" value="uuid" style="shape=partialRectangle;html=1;whiteSpace=wrap;connectable=0;fillColor=none;" vertex="1" parent="p3IHekGSYv0jLlhR8bM8-5">
          <mxGeometry x="138" width="82" height="31" as="geometry">
            <mxRectangle width="82" height="31" as="alternateBounds" />
          </mxGeometry>
        </mxCell>
        <mxCell id="p3IHekGSYv0jLlhR8bM8-8" style="html=1;whiteSpace=wrap;collapsible=0;dropTarget=0;pointerEvents=0;fillColor=none;strokeColor=none;points=[[0,0.5],[1,0.5]];portConstraint=eastwest;" vertex="1" parent="p3IHekGSYv0jLlhR8bM8-1">
          <mxGeometry y="91" width="220" height="31" as="geometry" />
        </mxCell>
        <mxCell id="p3IHekGSYv0jLlhR8bM8-9" value="first_name" style="shape=partialRectangle;html=1;whiteSpace=wrap;connectable=0;fillColor=none;" vertex="1" parent="p3IHekGSYv0jLlhR8bM8-8">
          <mxGeometry width="138" height="31" as="geometry">
            <mxRectangle width="138" height="31" as="alternateBounds" />
          </mxGeometry>
        </mxCell>
        <mxCell id="p3IHekGSYv0jLlhR8bM8-10" value="&lt;span style=&quot;font-family: &amp;#34;helvetica&amp;#34;&quot;&gt;varchar&lt;/span&gt;" style="shape=partialRectangle;html=1;whiteSpace=wrap;connectable=0;fillColor=none;" vertex="1" parent="p3IHekGSYv0jLlhR8bM8-8">
          <mxGeometry x="138" width="82" height="31" as="geometry">
            <mxRectangle width="82" height="31" as="alternateBounds" />
          </mxGeometry>
        </mxCell>
        <mxCell id="p3IHekGSYv0jLlhR8bM8-11" style="html=1;whiteSpace=wrap;collapsible=0;dropTarget=0;pointerEvents=0;fillColor=none;strokeColor=none;points=[[0,0.5],[1,0.5]];portConstraint=eastwest;" vertex="1" parent="p3IHekGSYv0jLlhR8bM8-1">
          <mxGeometry y="122" width="220" height="31" as="geometry" />
        </mxCell>
        <mxCell id="p3IHekGSYv0jLlhR8bM8-12" value="&lt;span&gt;last_name&lt;/span&gt;" style="shape=partialRectangle;html=1;whiteSpace=wrap;connectable=0;fillColor=none;" vertex="1" parent="p3IHekGSYv0jLlhR8bM8-11">
          <mxGeometry width="138" height="31" as="geometry">
            <mxRectangle width="138" height="31" as="alternateBounds" />
          </mxGeometry>
        </mxCell>
        <mxCell id="p3IHekGSYv0jLlhR8bM8-13" value="&lt;span style=&quot;font-family: &amp;#34;helvetica&amp;#34;&quot;&gt;varchar&lt;/span&gt;" style="shape=partialRectangle;html=1;whiteSpace=wrap;connectable=0;fillColor=none;" vertex="1" parent="p3IHekGSYv0jLlhR8bM8-11">
          <mxGeometry x="138" width="82" height="31" as="geometry">
            <mxRectangle width="82" height="31" as="alternateBounds" />
          </mxGeometry>
        </mxCell>
        <mxCell id="p3IHekGSYv0jLlhR8bM8-14" style="html=1;whiteSpace=wrap;collapsible=0;dropTarget=0;pointerEvents=0;fillColor=none;strokeColor=none;points=[[0,0.5],[1,0.5]];portConstraint=eastwest;" vertex="1" parent="p3IHekGSYv0jLlhR8bM8-1">
          <mxGeometry y="153" width="220" height="31" as="geometry" />
        </mxCell>
        <mxCell id="p3IHekGSYv0jLlhR8bM8-15" value="&lt;span style=&quot;text-align: start;&quot; data-sheets-userformat=&quot;{&amp;quot;2&amp;quot;:4224,&amp;quot;10&amp;quot;:2,&amp;quot;15&amp;quot;:&amp;quot;Arial&amp;quot;}&quot; data-sheets-value=&quot;{&amp;quot;1&amp;quot;:2,&amp;quot;2&amp;quot;:&amp;quot;hash_password&amp;quot;}&quot;&gt;&lt;font style=&quot;font-size: 12px;&quot;&gt;hash_password&lt;/font&gt;&lt;/span&gt;" style="shape=partialRectangle;html=1;whiteSpace=wrap;connectable=0;fillColor=none;" vertex="1" parent="p3IHekGSYv0jLlhR8bM8-14">
          <mxGeometry width="138" height="31" as="geometry">
            <mxRectangle width="138" height="31" as="alternateBounds" />
          </mxGeometry>
        </mxCell>
        <mxCell id="p3IHekGSYv0jLlhR8bM8-16" value="&lt;span style=&quot;font-family: helvetica;&quot;&gt;varchar&lt;/span&gt;" style="shape=partialRectangle;html=1;whiteSpace=wrap;connectable=0;fillColor=none;" vertex="1" parent="p3IHekGSYv0jLlhR8bM8-14">
          <mxGeometry x="138" width="82" height="31" as="geometry">
            <mxRectangle width="82" height="31" as="alternateBounds" />
          </mxGeometry>
        </mxCell>
        <mxCell id="p3IHekGSYv0jLlhR8bM8-17" style="html=1;whiteSpace=wrap;collapsible=0;dropTarget=0;pointerEvents=0;fillColor=none;strokeColor=none;points=[[0,0.5],[1,0.5]];portConstraint=eastwest;" vertex="1" parent="p3IHekGSYv0jLlhR8bM8-1">
          <mxGeometry y="184" width="220" height="31" as="geometry" />
        </mxCell>
        <mxCell id="p3IHekGSYv0jLlhR8bM8-18" value="email" style="shape=partialRectangle;html=1;whiteSpace=wrap;connectable=0;fillColor=none;" vertex="1" parent="p3IHekGSYv0jLlhR8bM8-17">
          <mxGeometry width="138" height="31" as="geometry">
            <mxRectangle width="138" height="31" as="alternateBounds" />
          </mxGeometry>
        </mxCell>
        <mxCell id="p3IHekGSYv0jLlhR8bM8-19" value="&lt;span style=&quot;font-family: &amp;#34;helvetica&amp;#34;&quot;&gt;varchar&lt;/span&gt;" style="shape=partialRectangle;html=1;whiteSpace=wrap;connectable=0;fillColor=none;" vertex="1" parent="p3IHekGSYv0jLlhR8bM8-17">
          <mxGeometry x="138" width="82" height="31" as="geometry">
            <mxRectangle width="82" height="31" as="alternateBounds" />
          </mxGeometry>
        </mxCell>
        <mxCell id="p3IHekGSYv0jLlhR8bM8-29" style="html=1;whiteSpace=wrap;collapsible=0;dropTarget=0;pointerEvents=0;fillColor=none;strokeColor=none;points=[[0,0.5],[1,0.5]];portConstraint=eastwest;" vertex="1" parent="p3IHekGSYv0jLlhR8bM8-1">
          <mxGeometry y="215" width="220" height="30" as="geometry" />
        </mxCell>
        <mxCell id="p3IHekGSYv0jLlhR8bM8-30" value="role&amp;nbsp;(FK)" style="shape=partialRectangle;html=1;whiteSpace=wrap;connectable=0;fillColor=none;" vertex="1" parent="p3IHekGSYv0jLlhR8bM8-29">
          <mxGeometry width="138" height="30" as="geometry">
            <mxRectangle width="138" height="30" as="alternateBounds" />
          </mxGeometry>
        </mxCell>
        <mxCell id="p3IHekGSYv0jLlhR8bM8-31" value="&lt;span&gt;varchar&lt;/span&gt;" style="shape=partialRectangle;html=1;whiteSpace=wrap;connectable=0;fillColor=none;" vertex="1" parent="p3IHekGSYv0jLlhR8bM8-29">
          <mxGeometry x="138" width="82" height="30" as="geometry">
            <mxRectangle width="82" height="30" as="alternateBounds" />
          </mxGeometry>
        </mxCell>
        <mxCell id="p3IHekGSYv0jLlhR8bM8-62" style="html=1;whiteSpace=wrap;collapsible=0;dropTarget=0;pointerEvents=0;fillColor=none;strokeColor=none;points=[[0,0.5],[1,0.5]];portConstraint=eastwest;" vertex="1" parent="p3IHekGSYv0jLlhR8bM8-1">
          <mxGeometry y="245" width="220" height="30" as="geometry" />
        </mxCell>
        <mxCell id="p3IHekGSYv0jLlhR8bM8-63" value="is_verified" style="shape=partialRectangle;html=1;whiteSpace=wrap;connectable=0;fillColor=none;" vertex="1" parent="p3IHekGSYv0jLlhR8bM8-62">
          <mxGeometry width="138" height="30" as="geometry">
            <mxRectangle width="138" height="30" as="alternateBounds" />
          </mxGeometry>
        </mxCell>
        <mxCell id="p3IHekGSYv0jLlhR8bM8-64" value="boolean" style="shape=partialRectangle;html=1;whiteSpace=wrap;connectable=0;fillColor=none;" vertex="1" parent="p3IHekGSYv0jLlhR8bM8-62">
          <mxGeometry x="138" width="82" height="30" as="geometry">
            <mxRectangle width="82" height="30" as="alternateBounds" />
          </mxGeometry>
        </mxCell>
        <mxCell id="p3IHekGSYv0jLlhR8bM8-38" value="user-role" style="swimlane;startSize=30;html=1;whiteSpace=wrap;container=1;collapsible=0;childLayout=tableLayout;" vertex="1" parent="1">
          <mxGeometry x="144" y="160" width="220" height="90.5" as="geometry" />
        </mxCell>
        <mxCell id="p3IHekGSYv0jLlhR8bM8-39" value="" style="html=1;whiteSpace=wrap;collapsible=0;dropTarget=0;pointerEvents=0;fillColor=none;strokeColor=none;points=[[0,0.5],[1,0.5]];portConstraint=eastwest;" vertex="1" parent="p3IHekGSYv0jLlhR8bM8-38">
          <mxGeometry y="30" width="220" height="30" as="geometry" />
        </mxCell>
        <mxCell id="p3IHekGSYv0jLlhR8bM8-40" value="Field" style="shape=partialRectangle;html=1;whiteSpace=wrap;connectable=0;fillColor=none;fontStyle=1" vertex="1" parent="p3IHekGSYv0jLlhR8bM8-39">
          <mxGeometry width="138" height="30" as="geometry">
            <mxRectangle width="138" height="30" as="alternateBounds" />
          </mxGeometry>
        </mxCell>
        <mxCell id="p3IHekGSYv0jLlhR8bM8-41" value="Type" style="shape=partialRectangle;html=1;whiteSpace=wrap;connectable=0;fillColor=none;fontStyle=1" vertex="1" parent="p3IHekGSYv0jLlhR8bM8-39">
          <mxGeometry x="138" width="82" height="30" as="geometry">
            <mxRectangle width="82" height="30" as="alternateBounds" />
          </mxGeometry>
        </mxCell>
        <mxCell id="p3IHekGSYv0jLlhR8bM8-42" value="" style="html=1;whiteSpace=wrap;collapsible=0;dropTarget=0;pointerEvents=0;fillColor=none;strokeColor=none;points=[[0,0.5],[1,0.5]];portConstraint=eastwest;" vertex="1" parent="p3IHekGSYv0jLlhR8bM8-38">
          <mxGeometry y="60" width="220" height="31" as="geometry" />
        </mxCell>
        <mxCell id="p3IHekGSYv0jLlhR8bM8-43" value="role" style="shape=partialRectangle;html=1;whiteSpace=wrap;connectable=0;fillColor=none;" vertex="1" parent="p3IHekGSYv0jLlhR8bM8-42">
          <mxGeometry width="138" height="31" as="geometry">
            <mxRectangle width="138" height="31" as="alternateBounds" />
          </mxGeometry>
        </mxCell>
        <mxCell id="p3IHekGSYv0jLlhR8bM8-44" value="&lt;span style=&quot;font-family: helvetica;&quot;&gt;varchar&lt;/span&gt;" style="shape=partialRectangle;html=1;whiteSpace=wrap;connectable=0;fillColor=none;" vertex="1" parent="p3IHekGSYv0jLlhR8bM8-42">
          <mxGeometry x="138" width="82" height="31" as="geometry">
            <mxRectangle width="82" height="31" as="alternateBounds" />
          </mxGeometry>
        </mxCell>
        <mxCell id="p3IHekGSYv0jLlhR8bM8-65" style="edgeStyle=orthogonalEdgeStyle;rounded=0;orthogonalLoop=1;jettySize=auto;html=1;exitX=0;exitY=0.5;exitDx=0;exitDy=0;entryX=1;entryY=0.5;entryDx=0;entryDy=0;fontFamily=Helvetica;fontSize=12;" edge="1" parent="1" source="p3IHekGSYv0jLlhR8bM8-29" target="p3IHekGSYv0jLlhR8bM8-42">
          <mxGeometry relative="1" as="geometry" />
        </mxCell>
      </root>
    </mxGraphModel>
  </diagram>
</mxfile>
